<svg xmlns="http://www.w3.org/2000/svg" xmlns:xlink="http://www.w3.org/1999/xlink" width="237" height="618" viewBox="0 0 237 618">
    <defs>
        <path id="a" d="M0 0h252v640H0z"/>
    </defs>
    <g fill="none" fill-rule="evenodd" transform="translate(0 -11)">
        <mask id="b" fill="#fff">
            <use xlink:href="#a"/>
        </mask>
        <path fill="#293232" d="M237 320c0 176.439-143.864 320-320.676 320-10.12 0-18.324-8.187-18.324-18.286 0-10.099 8.204-18.285 18.324-18.285 156.618 0 284.027-127.141 284.027-283.429 0-156.288-127.409-283.429-284.027-283.429-10.12 0-18.324-8.186-18.324-18.285C-102 8.186-93.796 0-83.676 0 93.136 0 237 143.543 237 320zm-151.305-.478c-.111 93.47-75.882 169.216-169.383 169.327-10.114 0-18.312-8.196-18.312-18.306 0-10.11 8.198-18.305 18.312-18.305 73.32 0 132.76-59.42 132.76-132.716 0-73.297-59.44-132.716-132.76-132.716-10.114 0-18.312-8.196-18.312-18.306 0-10.11 8.198-18.306 18.312-18.306 93.506.101 169.282 75.853 169.383 169.328zm75.652.478c0 134.776-109.918 244.425-245.027 244.425-10.118 0-18.32-8.182-18.32-18.275 0-10.093 8.202-18.275 18.32-18.275 115.09 0 208.388-93.069 208.388-207.875S31.409 112.125-83.68 112.125c-10.118 0-18.32-8.182-18.32-18.275 0-10.093 8.202-18.275 18.32-18.275 135.109 0 245.027 109.649 245.027 244.425zm-151.305-.478c-.06 51.752-41.998 93.691-93.75 93.752-10.102 0-18.292-8.19-18.292-18.294 0-10.102 8.19-18.293 18.293-18.293 31.57 0 57.164-25.594 57.164-57.165 0-31.572-25.593-57.166-57.164-57.166-10.103 0-18.293-8.19-18.293-18.293s8.19-18.293 18.293-18.293c51.751.06 93.689 41.999 93.75 93.752z" mask="url(#b)" opacity=".08"/>
    </g>
</svg>
