<?xml version="1.0" encoding="UTF-8"?>
<svg width="40px" height="40px" viewBox="0 0 40 40" version="1.1" xmlns="http://www.w3.org/2000/svg" xmlns:xlink="http://www.w3.org/1999/xlink">
    <!-- Generator: Sketch 53.2 (72643) - https://sketchapp.com -->
    <title>Artboard</title>
    <desc>Created with Sketch.</desc>
    <g id="Page-1" stroke="none" stroke-width="1" fill="none" fill-rule="evenodd">
        <g id="Artboard" transform="translate(-734.000000, -424.000000)" fill-rule="nonzero">
            <g id="Group" transform="translate(610.000000, 343.000000)">
                <g id="facebook" transform="translate(130.000000, 87.000000)">
                    <path d="M26.3448889,0 L1.53883333,0 C0.688722222,0 2.84217094e-14,0.688722222 2.84217094e-14,1.53883333 L2.84217094e-14,26.3445 C2.84217094e-14,27.1946111 0.688722222,27.8837222 1.53883333,27.8837222 L26.3448889,27.8837222 C27.1942222,27.8837222 27.8833333,27.1946111 27.8833333,26.3445 L27.8833333,1.53883333 C27.8833333,0.688722222 27.1942222,0 26.3448889,0" id="Fill-7" fill="#385285"></path>
                    <path d="M22.8639444,17.0854444 L23.4060556,12.8772778 L19.2395,12.8772778 L19.2395,10.1904444 C19.2395,8.97205556 19.5774444,8.14177778 21.3247222,8.14177778 L23.5526667,8.141 L23.5526667,4.37694444 C23.1676667,4.326 21.8450556,4.21127778 20.3058333,4.21127778 C17.0928333,4.21127778 14.8932778,6.17244444 14.8932778,9.77394444 L14.8932778,12.8772778 L11.2598889,12.8772778 L11.2598889,17.0854444 L14.8932778,17.0854444 L14.8932778,27.8837222 L19.2395,27.8837222 L19.2395,17.0854444 L22.8639444,17.0854444" id="Fill-16" fill="#FFFFFE"></path>
                </g>
            </g>
        </g>
    </g>
</svg>