<?xml version="1.0" encoding="UTF-8"?>
<svg width="40px" height="40px" viewBox="0 0 40 40" version="1.1" xmlns="http://www.w3.org/2000/svg" xmlns:xlink="http://www.w3.org/1999/xlink">
    <!-- Generator: Sketch 53.2 (72643) - https://sketchapp.com -->
    <title>Artboard</title>
    <desc>Created with Sketch.</desc>
    <defs>
        <linearGradient x1="21.0644367%" y1="82.2695635%" x2="88.8642327%" y2="0%" id="linearGradient-1">
            <stop stop-color="#F57131" offset="0%"></stop>
            <stop stop-color="#C03287" offset="41.5361525%"></stop>
            <stop stop-color="#7B4CC0" offset="100%"></stop>
        </linearGradient>
    </defs>
    <g id="Page-1" stroke="none" stroke-width="1" fill="none" fill-rule="evenodd">
        <g id="Artboard" transform="translate(-734.000000, -424.000000)" fill="url(#linearGradient-1)" fill-rule="nonzero">
            <g id="Group" transform="translate(610.000000, 343.000000)">
                <g id="instagram" transform="translate(130.000000, 87.000000)">
                    <path d="M13.999967,6.812546 C15.291631,6.812546 16.489544,7.135462 17.593708,7.781293 C18.697872,8.427125 19.57287,9.302123 20.218702,10.406287 C20.864533,11.510452 21.187449,12.708365 21.187449,14.000029 C21.187449,15.291693 20.864533,16.489606 20.218702,17.59377 C19.57287,18.697934 18.697872,19.572932 17.593708,20.218764 C16.489544,20.864595 15.291631,21.187511 13.999967,21.187511 C12.708303,21.187511 11.51039,20.864595 10.406225,20.218764 C9.302061,19.572932 8.427063,18.697934 7.781231,17.59377 C7.1354,16.489606 6.812484,15.291693 6.812484,14.000029 C6.812484,12.708365 7.1354,11.510452 7.781231,10.406287 C8.427063,9.302123 9.302061,8.427125 10.406225,7.781293 C11.51039,7.135462 12.708303,6.812546 13.999967,6.812546 Z M13.999967,18.687517 C15.291631,18.687517 16.395794,18.229186 17.312459,17.312521 C18.229124,16.395856 18.687455,15.291693 18.687455,14.000029 C18.687455,12.708365 18.229124,11.604201 17.312459,10.687537 C16.395794,9.770872 15.291631,9.31254 13.999967,9.31254 C12.708303,9.31254 11.604139,9.770872 10.687475,10.687537 C9.77081,11.604201 9.312478,12.708365 9.312478,14.000029 C9.312478,15.291693 9.77081,16.395856 10.687475,17.312521 C11.604139,18.229186 12.708303,18.687517 13.999967,18.687517 Z M23.187445,6.500046 C23.145778,6.958378 22.968695,7.354211 22.656196,7.687544 C22.343697,8.020876 21.958281,8.187542 21.499949,8.187542 C21.041617,8.187542 20.645784,8.020876 20.312452,7.687544 C19.979119,7.354211 19.812453,6.958378 19.812453,6.500046 C19.812453,6.041715 19.979119,5.645882 20.312452,5.312549 C20.645784,4.979217 21.041617,4.812551 21.499949,4.812551 C21.958281,4.812551 22.354114,4.979217 22.687446,5.312549 C23.020778,5.645882 23.187445,6.041715 23.187445,6.500046 Z M27.937433,8.187542 C27.9791,9.354207 27.999933,11.291702 27.999933,14.000029 C27.999933,16.708355 27.968683,18.656268 27.906183,19.843765 C27.843684,21.031262 27.666601,22.062509 27.374935,22.937507 C26.999936,23.979172 26.42702,24.88542 25.656189,25.656251 C24.885358,26.427082 23.97911,26.999998 22.937445,27.374997 C22.062447,27.666663 21.0312,27.843746 19.843703,27.906245 C18.656206,27.968745 16.708293,27.999995 13.999967,27.999995 C11.29164,27.999995 9.343728,27.968745 8.156231,27.906245 C6.968733,27.843746 5.937486,27.645829 5.062488,27.312497 C4.020823,26.979165 3.114576,26.427082 2.343744,25.656251 C1.572913,24.88542 0.999998,23.979172 0.624999,22.937507 C0.333332,22.062509 0.15625,21.031262 0.09375,19.843765 C0.03125,18.656268 0,16.708355 0,14.000029 C0,11.291702 0.03125,9.34379 0.09375,8.156293 C0.15625,6.968795 0.333332,5.937548 0.624999,5.06255 C0.999998,4.020885 1.572913,3.114638 2.343744,2.343806 C3.114576,1.572975 4.020823,1.00006 5.062488,0.62506 C5.937486,0.333394 6.968733,0.156312 8.156231,0.093812 C9.343728,0.031312 11.29164,6.2e-05 13.999967,6.2e-05 C16.708293,6.2e-05 18.656206,0.031312 19.843703,0.093812 C21.0312,0.156312 22.062447,0.333394 22.937445,0.62506 C23.97911,1.00006 24.885358,1.572975 25.656189,2.343806 C26.42702,3.114638 26.999936,4.020885 27.374935,5.06255 C27.666601,5.937548 27.854101,6.979212 27.937433,8.187542 Z M24.937441,22.250009 C25.18744,21.541678 25.354107,20.41668 25.437439,18.875017 C25.479106,17.958352 25.499939,16.666689 25.499939,15.000026 L25.499939,13.000031 C25.499939,11.291702 25.479106,10.000038 25.437439,9.12504 C25.354107,7.541711 25.18744,6.416714 24.937441,5.750048 C24.437442,4.458384 23.541611,3.562553 22.249947,3.062555 C21.583282,2.812555 20.458284,2.645889 18.874955,2.562556 C17.95829,2.520889 16.666627,2.500056 14.999964,2.500056 L12.999969,2.500056 C11.333306,2.500056 10.041643,2.520889 9.124978,2.562556 C7.583315,2.645889 6.458318,2.812555 5.749986,3.062555 C4.458322,3.562553 3.562492,4.458384 3.062493,5.750048 C2.812493,6.416714 2.645827,7.541711 2.562494,9.12504 C2.520827,10.041705 2.499994,11.333368 2.499994,13.000031 L2.499994,15.000026 C2.499994,16.666689 2.520827,17.958352 2.562494,18.875017 C2.645827,20.41668 2.812493,21.541678 3.062493,22.250009 C3.604158,23.541673 4.499989,24.437504 5.749986,24.937503 C6.458318,25.187502 7.583315,25.354169 9.124978,25.437501 C10.041643,25.479168 11.333306,25.500001 12.999969,25.500001 L14.999964,25.500001 C16.708293,25.500001 17.999957,25.479168 18.874955,25.437501 C20.458284,25.354169 21.583282,25.187502 22.249947,24.937503 C23.541611,24.395837 24.437442,23.500006 24.937441,22.250009 Z"></path>
                </g>
            </g>
        </g>
    </g>
</svg>