<svg xmlns="http://www.w3.org/2000/svg" width="64" height="57" viewBox="0 0 64 57">
    <path fill="#C8BB82" fill-rule="evenodd" d="M11.422 0c3.022 0 5.5.674 7.434 2.023 1.933 1.348 3.505 2.972 4.713 4.872 1.21 1.9 2.055 3.861 2.539 5.884.483 2.023.725 3.708.725 5.056 0 9.194-1.964 16.794-5.892 22.8C17.012 46.642 11.603 52.097 4.714 57h-.181v-.368c-.847-.49-1.632-.98-2.357-1.47a5.575 5.575 0 0 1-1.541-1.38C.212 53.231 0 52.648 0 52.035c0-1.225.604-2.083 1.813-2.574 1.209-1.226 2.478-2.696 3.807-4.413a47.135 47.135 0 0 0 3.717-5.608 40 40 0 0 0 2.901-6.343c.786-2.207 1.178-4.413 1.178-6.62 0-2.451-.211-4.351-.634-5.7-.423-1.348-1.118-2.022-2.085-2.022-3.868 0-6.376-.797-7.524-2.39-1.148-1.594-1.723-3.433-1.723-5.517 0-3.922.846-6.71 2.539-8.366C5.68.827 8.159 0 11.422 0zM48.59 0c3.022 0 5.5.674 7.434 2.023 1.934 1.348 3.505 2.972 4.714 4.872 1.208 1.9 2.054 3.861 2.538 5.884.483 2.023.725 3.708.725 5.056 0 9.194-1.964 16.794-5.892 22.8C54.179 46.642 48.77 52.097 41.88 57H41.7v-.368c-.846-.49-1.632-.98-2.357-1.47a5.575 5.575 0 0 1-1.541-1.38c-.423-.551-.635-1.134-.635-1.747 0-1.225.604-2.083 1.813-2.574 1.209-1.226 2.478-2.696 3.808-4.413a47.135 47.135 0 0 0 3.716-5.608 40 40 0 0 0 2.901-6.343c.786-2.207 1.179-4.413 1.179-6.62 0-2.451-.212-4.351-.635-5.7-.423-1.348-1.118-2.022-2.085-2.022-3.868 0-6.376-.797-7.524-2.39-1.148-1.594-1.722-3.433-1.722-5.517 0-3.922.846-6.71 2.538-8.366C42.848.827 45.326 0 48.589 0z"/>
</svg>
