<?xml version="1.0" encoding="UTF-8"?>
<svg width="40px" height="40px" viewBox="0 0 40 40" version="1.1" xmlns="http://www.w3.org/2000/svg" xmlns:xlink="http://www.w3.org/1999/xlink">
    <!-- Generator: Sketch 53.2 (72643) - https://sketchapp.com -->
    <title>Artboard</title>
    <desc>Created with Sketch.</desc>
    <g id="Page-1" stroke="none" stroke-width="1" fill="none" fill-rule="evenodd">
        <g id="Artboard" transform="translate(-685.000000, -424.000000)" fill-rule="nonzero">
            <g id="Group" transform="translate(685.000000, 424.000000)">
                <g id="Youtube" transform="translate(2.000000, 8.000000)">
                    <path d="M34.3749183,3.75004806 C34.6665846,4.87504538 34.8749171,6.58337432 34.9999168,8.87503584 L35.0624166,12.0000284 L34.9999168,15.1250209 C34.8749171,17.4583484 34.6665846,19.1875113 34.3749183,20.3125086 C34.1665858,21.0208399 33.7915867,21.6458384 33.249921,22.1875041 C32.7082553,22.7291698 32.0624238,23.1041689 31.3124256,23.3125014 C30.2290951,23.6041677 27.6874342,23.8125002 23.6874438,23.9374999 L17.9999573,23.9999998 L12.3124709,23.9374999 C8.31248042,23.8125002 5.77081949,23.6041677 4.68748906,23.3125014 C3.93749085,23.1041689 3.29165937,22.7291698 2.74999368,22.1875041 C2.20832799,21.6458384 1.83332888,21.0208399 1.62499636,20.3125086 C1.33333007,19.1875113 1.12499755,17.4583484 0.999997851,15.1250209 L0.937498,12.0000284 C0.937498,11.0833636 0.958330966,10.0417 0.999997851,8.87503584 C1.12499755,6.58337432 1.33333007,4.87504538 1.62499636,3.75004806 C1.83332888,3.00004985 2.20832799,2.35421837 2.74999368,1.81255268 C3.29165937,1.27088699 3.93749085,0.89588788 4.68748906,0.687555361 C5.77081949,0.395889072 8.31248042,0.187556553 12.3124709,0.062556851 L17.9999573,5.7e-05 L23.6874438,0.062556851 C27.6874342,0.187556553 30.2290951,0.395889072 31.3124256,0.687555361 C32.0624238,0.89588788 32.7082553,1.27088699 33.249921,1.81255268 C33.7915867,2.35421837 34.1665858,3.00004985 34.3749183,3.75004806 Z" id="youtube" fill="#FF0000"></path>
                    <polygon id="Path" fill="#FFFFFF" points="14.4999657 17.1250162 23.4374444 12.0000284 14.4999657 6.93754046"></polygon>
                </g>
            </g>
        </g>
    </g>
</svg>